<?xml version="1.0" encoding="utf-8"?>
<!-- Generator: Adobe Illustrator 22.0.1, SVG Export Plug-In . SVG Version: 6.00 Build 0)  -->
<svg version="1.1" id="Layer_1" xmlns="http://www.w3.org/2000/svg" xmlns:xlink="http://www.w3.org/1999/xlink" x="0px" y="0px"
	 viewBox="0 0 38.4 38.4" style="enable-background:new 0 0 38.4 38.4;" xml:space="preserve">
<style type="text/css">
	.st0{fill:#FFFFFF;}
</style>
<path class="st0" d="M16.3,23.3c0-1.4,0-2.8,0-4.3c0-0.2-0.1-0.3-0.3-0.3c-0.4,0-0.9,0-1.3,0c-0.2,0-0.2,0-0.2-0.2
	c0-0.9,0-1.8,0-2.7c0-0.2,0-0.2,0.2-0.2c0.5,0,0.9,0,1.4,0c0.3,0,0.3-0.1,0.3-0.3c0-0.7,0-1.4,0-2c0-0.8,0.2-1.6,0.7-2.3
	c0.6-0.8,1.5-1.2,2.5-1.3c1,0,2.1,0,3.1,0c0.1,0,0.2,0.1,0.2,0.2c0,0.9,0,1.8,0,2.7c0,0.2-0.1,0.2-0.2,0.2c-0.5,0-1,0-1.5,0
	c-0.7,0-1.1,0.3-1.1,1c0,0.5,0,1.1,0,1.6c0,0.2,0.1,0.2,0.2,0.2c0.8,0,1.5,0,2.3,0c0.2,0,0.3,0,0.3,0.3c-0.1,0.9-0.2,1.8-0.3,2.7
	c0,0.2-0.1,0.2-0.3,0.2c-0.6,0-1.2,0-1.8,0c-0.4,0-0.4-0.1-0.4,0.4c0,2.8,0,5.6,0,8.3c0,0.3-0.1,0.4-0.4,0.4c-1,0-2.1,0-3.1,0
	c-0.3,0-0.3-0.1-0.3-0.4C16.3,26.1,16.3,24.7,16.3,23.3L16.3,23.3z"/>
<path class="st0" d="M19.2,36.7v0.5c9.9,0,18-8.1,18-18c0-9.9-8.1-18-18-18c-9.9,0-18,8.1-18,18c0,9.9,8.1,18,18,18V36.7v-0.5
	c-4.7,0-9-1.9-12.1-5c-3.1-3.1-5-7.4-5-12.1c0-4.7,1.9-9,5-12.1c3.1-3.1,7.4-5,12.1-5c4.7,0,9,1.9,12.1,5c3.1,3.1,5,7.4,5,12.1
	c0,4.7-1.9,9-5,12.1c-3.1,3.1-7.4,5-12.1,5V36.7L19.2,36.7z"/>
</svg>
