<?xml version="1.0" encoding="utf-8"?>
<!-- Generator: Adobe Illustrator 22.0.1, SVG Export Plug-In . SVG Version: 6.00 Build 0)  -->
<svg version="1.1" id="Layer_1" xmlns="http://www.w3.org/2000/svg" xmlns:xlink="http://www.w3.org/1999/xlink" x="0px" y="0px"
	 viewBox="0 0 668.3 178.3" style="enable-background:new 0 0 668.3 178.3;" xml:space="preserve">
<style type="text/css">
	.st0{fill:#FFFFFF;}
</style>
<g>
	<path class="st0" d="M446.3,122.4c-10.7,11.7-26.1,19.1-43.2,19.1c-17.1,0-32.5-7.4-43.2-19.1h-15c12.7,18.6,34,30.9,58.2,30.9
		s45.5-12.3,58.2-30.9H446.3L446.3,122.4z"/>
	<polygon class="st0" points="148.3,103.3 148.3,32.4 161.3,32.4 161.3,103.3 148.3,103.3 	"/>
	<path class="st0" d="M171.4,38.6c0-4.4,3.6-8.1,8-8.1c4.5,0,8.1,3.7,8.1,8.1s-3.6,8-8.1,8C175,46.6,171.4,42.9,171.4,38.6
		L171.4,38.6z M172.9,103.3V52.7h13.1v50.6H172.9L172.9,103.3z"/>
	<path class="st0" d="M224.4,43.6c-7.2-0.5-10.7,2.3-10.7,8.6v0.5h10.7v12.5h-10.7v38.1h-13.1V65.2h-7.3V52.7h7.3v-0.5
		c0-14.3,8-22.1,23.8-21.2V43.6L224.4,43.6z"/>
	<path class="st0" d="M241.4,83.3c1.7,6.4,6.5,9.5,14.3,9.5c5,0,8.8-1.7,11.3-5.1l10.5,6.1c-5,7.2-12.3,10.8-22.1,10.8
		c-8.4,0-15.1-2.5-20.1-7.6c-5.1-5.1-7.6-11.4-7.6-19.1c0-7.6,2.5-14,7.5-19c5-5.2,11.4-7.7,19.2-7.7c7.4,0,13.6,2.5,18.3,7.7
		c4.9,5.2,7.3,11.4,7.3,19c0,1.7-0.2,3.4-0.5,5.4H241.4L241.4,83.3z M267,73.2c-1.5-6.9-6.6-10.2-12.5-10.2c-7,0-11.7,3.7-13.3,10.2
		H267L267,73.2z"/>
	<path class="st0" d="M315.3,43.6c-7.2-0.5-10.7,2.3-10.7,8.6v0.5h10.7v12.5h-10.7v38.1h-13.1V65.2h-7.3V52.7h7.3v-0.5
		c0-14.3,8-22.1,23.8-21.2V43.6L315.3,43.6z"/>
	<path class="st0" d="M359.8,52.7h13.1v50.6h-13.1v-6c-3.9,5-9.4,7.4-16.5,7.4c-6.8,0-12.5-2.5-17.4-7.7c-4.8-5.2-7.2-11.5-7.2-19
		c0-7.5,2.4-13.8,7.2-18.9c4.9-5.2,10.6-7.8,17.4-7.8c7.1,0,12.5,2.4,16.5,7.4V52.7L359.8,52.7z M345.7,92.2c4,0,7.4-1.3,10-3.9
		c2.7-2.7,4-6.2,4-10.3c0-4.1-1.3-7.6-4-10.2c-2.6-2.7-6-4-10-4c-4,0-7.4,1.3-10,4c-2.6,2.6-3.9,6.1-3.9,10.2
		c0,4.1,1.3,7.6,3.9,10.3C338.3,90.9,341.6,92.2,345.7,92.2L345.7,92.2z"/>
	<polygon class="st0" points="431.1,103.3 415.9,103.3 397.5,80.3 397.5,103.3 384.4,103.3 384.4,32.4 397.5,32.4 397.5,74.9 
		414.9,52.7 430.5,52.7 410.1,77.7 431.1,103.3 	"/>
	<path class="st0" d="M443.7,83.3c1.7,6.4,6.5,9.5,14.3,9.5c5,0,8.8-1.7,11.3-5.1l10.5,6.1c-5,7.2-12.3,10.8-22.1,10.8
		c-8.4,0-15.1-2.5-20.1-7.6C432.6,92,430,85.7,430,78c0-7.6,2.5-14,7.5-19c5-5.2,11.4-7.7,19.2-7.7c7.4,0,13.6,2.5,18.3,7.7
		c4.9,5.2,7.3,11.4,7.3,19c0,1.7-0.2,3.4-0.5,5.4H443.7L443.7,83.3z M469.3,73.2c-1.5-6.9-6.6-10.2-12.5-10.2
		c-7,0-11.7,3.7-13.3,10.2H469.3L469.3,73.2z"/>
	<path class="st0" d="M504.6,61.4c2.4-6.5,8.5-9.7,15.4-9.7v14.6c-3.9-0.5-7.6,0.3-10.7,2.4c-3.1,2.1-4.7,5.6-4.7,10.4v24.2h-13.1
		V52.7h13.1V61.4L504.6,61.4z"/>
</g>
</svg>
