<?xml version="1.0" standalone="no"?>
<!DOCTYPE svg PUBLIC "-//W3C//DTD SVG 20010904//EN"
 "http://www.w3.org/TR/2001/REC-SVG-20010904/DTD/svg10.dtd">
<svg version="1.0" xmlns="http://www.w3.org/2000/svg"
 width="700.000000pt" height="700.000000pt" viewBox="0 0 700.000000 700.000000"
 preserveAspectRatio="xMidYMid meet">
<metadata>
Created by potrace 1.11, written by Peter Selinger 2001-2013
</metadata>
<g transform="translate(0.000000,700.000000) scale(0.100000,-0.100000)"
fill="#000000" stroke="none">
<path d="M0 3500 l0 -3500 3500 0 3500 0 0 3500 0 3500 -3500 0 -3500 0 0
-3500z m1524 632 c466 -453 1049 -726 1691 -792 131 -14 443 -14 570 0 649 70
1243 352 1704 809 l92 91 359 0 c198 0 360 -2 360 -5 0 -3 -26 -40 -57 -83
-276 -371 -635 -697 -1014 -920 -689 -405 -1472 -554 -2264 -431 -539 84
-1086 318 -1515 648 -269 207 -528 474 -708 730 l-43 61 357 0 357 0 111 -108z"/>
</g>
</svg>
