<?xml version="1.0" encoding="utf-8"?>
<!-- Generator: Adobe Illustrator 22.0.1, SVG Export Plug-In . SVG Version: 6.00 Build 0)  -->
<svg version="1.1" id="Layer_1" xmlns="http://www.w3.org/2000/svg" xmlns:xlink="http://www.w3.org/1999/xlink" x="0px" y="0px"
	 viewBox="0 0 38.4 38.4" style="enable-background:new 0 0 38.4 38.4;" xml:space="preserve">
<style type="text/css">
	.st0{fill:#FFFFFF;}
</style>
<path class="st0" d="M19.2,36.7v0.5c9.9,0,18-8.1,18-18c0-9.9-8.1-18-18-18c-9.9,0-18,8.1-18,18c0,9.9,8.1,18,18,18V36.7v-0.5
	c-4.7,0-9-1.9-12.1-5c-3.1-3.1-5-7.4-5-12.1c0-4.7,1.9-9,5-12.1c3.1-3.1,7.4-5,12.1-5c4.7,0,9,1.9,12.1,5c3.1,3.1,5,7.4,5,12.1
	c0,4.7-1.9,9-5,12.1c-3.1,3.1-7.4,5-12.1,5V36.7L19.2,36.7z"/>
<path class="st0" d="M16,27.6c7.4,0,11.4-6.1,11.4-11.4c0-0.2,0-0.3,0-0.5c0.8-0.6,1.5-1.3,2-2.1c-0.7,0.3-1.5,0.5-2.3,0.6
	c0.8-0.5,1.5-1.3,1.8-2.2c-0.8,0.5-1.6,0.8-2.5,1c-0.7-0.8-1.8-1.3-2.9-1.3c-2.2,0-4,1.8-4,4c0,0.3,0,0.6,0.1,0.9
	c-3.3-0.2-6.3-1.8-8.3-4.2c-0.3,0.6-0.5,1.3-0.5,2c0,1.4,0.7,2.6,1.8,3.3c-0.7,0-1.3-0.2-1.8-0.5l0,0.1c0,1.9,1.4,3.6,3.2,3.9
	c-0.3,0.1-0.7,0.1-1.1,0.1c-0.3,0-0.5,0-0.8-0.1c0.5,1.6,2,2.8,3.7,2.8c-1.4,1.1-3.1,1.7-5,1.7c-0.3,0-0.6,0-1-0.1
	C11.6,27,13.7,27.6,16,27.6"/>
</svg>
