<?xml version="1.0" encoding="utf-8"?>
<!-- Generator: Adobe Illustrator 22.0.1, SVG Export Plug-In . SVG Version: 6.00 Build 0)  -->
<svg version="1.1" id="Layer_1" xmlns="http://www.w3.org/2000/svg" xmlns:xlink="http://www.w3.org/1999/xlink" x="0px" y="0px"
	 viewBox="0 0 244.6 244.6" style="enable-background:new 0 0 244.6 244.6;" xml:space="preserve">
<style type="text/css">
	.st0{fill:#0B4367;}
	.st1{fill:#EF6637;}
</style>
<path class="st0" d="M122.3,242.9c51.9,0,96.1-32.9,113-79.1c1.7-4.6,3-9.4,4.1-14.2c-27.8,23.6-70.1,38.7-117.4,38.7
	c-46.9,0-88.9-14.8-116.7-38.1c1.1,4.6,2.4,9.2,4,13.6C26.2,209.9,70.4,242.9,122.3,242.9z"/>
<path class="st1" d="M122.3,2.9c-66.3,0-120,53.9-120,120.3c0,9.3,1.1,18.3,3,27c27.8,23.3,69.7,38.1,116.7,38.1
	c47.4,0,89.6-15.1,117.4-38.7c1.9-8.5,2.9-17.3,2.9-26.3C242.3,56.8,188.6,2.9,122.3,2.9z"/>
</svg>
